<svg xmlns="http://www.w3.org/2000/svg" xmlns:xlink="http://www.w3.org/1999/xlink" width="53.212" height="50.11" viewBox="0 0 53.212 50.11">
  <defs>
    <linearGradient id="linear-gradient" y1="0.5" x2="1.012" y2="0.5" gradientUnits="objectBoundingBox">
      <stop offset="0" stop-color="#86c553"/>
      <stop offset="1" stop-color="#d4e274"/>
    </linearGradient>
    <linearGradient id="linear-gradient-2" x1="-6.056" y1="0.5" x2="0.671" y2="0.5" xlink:href="#linear-gradient"/>
    <linearGradient id="linear-gradient-3" x1="0.001" y1="0.5" x2="1" y2="0.5" xlink:href="#linear-gradient"/>
    <linearGradient id="linear-gradient-4" x1="0" y1="0.5" x2="1" y2="0.5" xlink:href="#linear-gradient"/>
  </defs>
  <g id="Group_1" data-name="Group 1" transform="translate(-1020.166 247.601)">
    <path id="Path_36" data-name="Path 36" d="M1073.891,347.467a24.934,24.934,0,0,1-3.51,8.717,25.846,25.846,0,0,1-6.472,6.837,25.073,25.073,0,1,1-13.167-45.347,24.767,24.767,0,0,1,9.167,2.319,25.479,25.479,0,0,1,7.623,5.544,24.84,24.84,0,0,1,6.8,17.155,24.784,24.784,0,0,0-6.917-17.041,24.5,24.5,0,0,0-41.17,23.8,24.176,24.176,0,0,0,4.159,8.182,25.115,25.115,0,0,0,6.888,6.1,24.2,24.2,0,0,0,8.683,3.128,24.574,24.574,0,0,0,17.8-4.04,24.882,24.882,0,0,0,10.079-15.383Z" transform="translate(-4 -565.228)" fill="url(#linear-gradient)"/>
    <path id="Path_37" data-name="Path 37" d="M1108.815,361.63a24.152,24.152,0,0,1-4.5,6.37l3.914-.957,3.629,1.766A24.089,24.089,0,0,1,1108.815,361.63Z" transform="translate(-38.486 -584.16)" fill="url(#linear-gradient-2)"/>
    <path id="Path_38" data-name="Path 38" d="M1080.247,355.291a8.651,8.651,0,0,0,1.3-.877,4.646,4.646,0,0,0,1.02-1.139,5.543,5.543,0,0,0,.655-1.55,7.97,7.97,0,0,0,.239-2.08,5.4,5.4,0,0,0-.627-2.712,4.927,4.927,0,0,0-1.675-1.709,7.251,7.251,0,0,0-2.376-.906,13.766,13.766,0,0,0-2.7-.268h-1.054v3.419h.171c.382,0,.769-.028,1.139-.028a3.282,3.282,0,0,1,2.279.712,2.53,2.53,0,0,1,.781,1.966,2.764,2.764,0,0,1-1.008,2.4,4.308,4.308,0,0,1-2.593.724h-.8v2.963h1.584l3.937,7.658h4.416Z" transform="translate(-25.871 -576.596)" fill="#fff"/>
    <path id="Path_39" data-name="Path 39" d="M1058.419,353.88a10.729,10.729,0,0,0,2.279,1.14c.826.3,1.59.6,2.279.895a7.4,7.4,0,0,1,1.76,1.031,2.212,2.212,0,0,1,.353.382v-4.5l-.57-.239c-.826-.313-1.59-.632-2.279-.946a7.875,7.875,0,0,1-1.755-1.065,1.852,1.852,0,0,1-.718-1.5,1.664,1.664,0,0,1,.769-1.43,3.674,3.674,0,0,1,2.108-.53,10.768,10.768,0,0,1,1.413.1c.37.051.724.12,1.054.2v-3.453a18.554,18.554,0,0,0-2.467-.165,8.449,8.449,0,0,0-2.735.416,6.36,6.36,0,0,0-2.108,1.174,5.31,5.31,0,0,0-1.857,4.108,4.609,4.609,0,0,0,.712,2.684A6.232,6.232,0,0,0,1058.419,353.88Z" transform="translate(-17.671 -576.484)" fill="#fff"/>
    <path id="Path_40" data-name="Path 40" d="M1065.034,369.885a2.138,2.138,0,0,1-.507.507,4.079,4.079,0,0,1-2.433.632,7.19,7.19,0,0,1-1.635-.182,7.976,7.976,0,0,1-1.407-.461l-.171-.057V367.56h-3.071v5.2c.239.131.57.285.952.473a10.788,10.788,0,0,0,1.35.53,12.7,12.7,0,0,0,1.681.422,11.828,11.828,0,0,0,4.928-.211l.313-.091Z" transform="translate(-17.615 -586.711)" fill="#fff"/>
    <path id="Path_41" data-name="Path 41" d="M1046.327,351.917c-.325,0-.49-.16-.49-.467v-2.279a.433.433,0,0,1,.49-.484h2.644a.416.416,0,0,1,.33.137.57.57,0,0,1,.114.348v2.279c0,.308-.148.467-.444.467Z" transform="translate(-13.322 -578.589)" fill="url(#linear-gradient-3)"/>
    <rect id="Rectangle_5" data-name="Rectangle 5" width="3.441" height="12.478" transform="translate(1032.583 -224.837)" fill="url(#linear-gradient-4)"/>
  </g>
</svg>
