<svg width="22" height="22" viewBox="0 0 22 22" fill="none" xmlns="http://www.w3.org/2000/svg">
<path d="M12.8335 8.24992H10.5418C9.78244 8.24992 9.16683 8.86553 9.16683 9.62492C9.16683 10.3843 9.78244 10.9999 10.5418 10.9999H11.4585C12.2179 10.9999 12.8335 11.6155 12.8335 12.3749C12.8335 13.1343 12.2179 13.7499 11.4585 13.7499H9.16683M11.0002 7.33325V8.24992M11.0002 13.7499V14.6666M16.5002 10.9999H16.5093M5.50016 10.9999H5.50933M1.8335 7.51658L1.8335 14.4832C1.8335 15.51 1.8335 16.0234 2.03332 16.4156C2.20909 16.7605 2.48955 17.041 2.83451 17.2168C3.22668 17.4166 3.74007 17.4166 4.76683 17.4166L17.2335 17.4166C18.2603 17.4166 18.7736 17.4166 19.1658 17.2168C19.5108 17.041 19.7912 16.7605 19.967 16.4156C20.1668 16.0234 20.1668 15.51 20.1668 14.4833V7.51659C20.1668 6.48982 20.1668 5.97644 19.967 5.58427C19.7912 5.23931 19.5108 4.95884 19.1658 4.78307C18.7736 4.58325 18.2603 4.58325 17.2335 4.58325L4.76683 4.58325C3.74007 4.58325 3.22669 4.58325 2.83451 4.78307C2.48955 4.95884 2.20909 5.23931 2.03332 5.58427C1.8335 5.97644 1.8335 6.48982 1.8335 7.51658ZM16.9585 10.9999C16.9585 11.253 16.7533 11.4583 16.5002 11.4583C16.247 11.4583 16.0418 11.253 16.0418 10.9999C16.0418 10.7468 16.247 10.5416 16.5002 10.5416C16.7533 10.5416 16.9585 10.7468 16.9585 10.9999ZM5.9585 10.9999C5.9585 11.253 5.75329 11.4583 5.50016 11.4583C5.24703 11.4583 5.04183 11.253 5.04183 10.9999C5.04183 10.7468 5.24703 10.5416 5.50016 10.5416C5.75329 10.5416 5.9585 10.7468 5.9585 10.9999Z" stroke="white" stroke-width="2" stroke-linecap="round" stroke-linejoin="round"/>
</svg>
