<svg width="42" height="42" viewBox="0 0 42 42" fill="none" xmlns="http://www.w3.org/2000/svg">
<path d="M3.5 13.4781C3.5 10.8668 5.61685 8.75 8.22811 8.75C9.58486 8.75 10.7894 7.88182 11.2184 6.5947L11.375 6.125C11.4488 5.9035 11.4858 5.79275 11.5252 5.6945C12.0296 4.43997 13.2114 3.58814 14.5611 3.5064C14.6668 3.5 14.7835 3.5 15.017 3.5H26.983C27.2165 3.5 27.3332 3.5 27.4389 3.5064C28.7886 3.58814 29.9704 4.43997 30.4748 5.6945C30.5142 5.79275 30.5512 5.9035 30.625 6.125L30.7816 6.5947C31.2106 7.88182 32.4151 8.75 33.7719 8.75C36.3832 8.75 38.5 10.8668 38.5 13.4781V28.35C38.5 31.2903 38.5 32.7604 37.9278 33.8834C37.4244 34.8713 36.6213 35.6744 35.6334 36.1778C34.5104 36.75 33.0403 36.75 30.1 36.75H11.9C8.95972 36.75 7.48959 36.75 6.36655 36.1778C5.3787 35.6744 4.57555 34.8713 4.07222 33.8834C3.5 32.7604 3.5 31.2903 3.5 28.35V13.4781Z" stroke="white" stroke-width="4" stroke-linecap="round" stroke-linejoin="round"/>
<path d="M21 28.875C25.3492 28.875 28.875 25.3492 28.875 21C28.875 16.6508 25.3492 13.125 21 13.125C16.6508 13.125 13.125 16.6508 13.125 21C13.125 25.3492 16.6508 28.875 21 28.875Z" stroke="white" stroke-width="4" stroke-linecap="round" stroke-linejoin="round"/>
</svg>
