<svg width="22" height="22" viewBox="0 0 22 22" fill="none" xmlns="http://www.w3.org/2000/svg">
<g clip-path="url(#clip0_376_6728)">
<path d="M20.1668 10.1621V11.0054C20.1657 12.9821 19.5256 14.9055 18.3421 16.4887C17.1585 18.072 15.4948 19.2302 13.5992 19.7907C11.7036 20.3511 9.67765 20.2838 7.82343 19.5988C5.9692 18.9137 4.3861 17.6477 3.31021 15.9894C2.23432 14.3311 1.7233 12.3695 1.85337 10.397C1.98343 8.42459 2.7476 6.54704 4.03192 5.04439C5.31624 3.54174 7.05188 2.49451 8.98 2.05888C10.9081 1.62324 12.9254 1.82255 14.731 2.62708M20.1668 3.66683L11.0002 12.8427L8.25016 10.0927" stroke="white" stroke-width="2" stroke-linecap="round" stroke-linejoin="round"/>
</g>
<defs>
<clipPath id="clip0_376_6728">
<rect width="22" height="22" fill="white"/>
</clipPath>
</defs>
</svg>
