<svg width="24" height="24" viewBox="0 0 24 24" fill="none" xmlns="http://www.w3.org/2000/svg">
<path d="M8.8258 10.0202C8.76364 9.94181 8.68644 9.8767 8.59875 9.82863C8.51105 9.78057 8.41462 9.75053 8.31514 9.74028C8.21566 9.73003 8.11514 9.73978 8.01948 9.76895C7.92383 9.79813 7.83497 9.84614 7.75814 9.91016C7.68132 9.97418 7.61807 10.0529 7.57212 10.1418C7.52618 10.2306 7.49846 10.3277 7.4906 10.4274C7.48274 10.5271 7.4949 10.6274 7.52636 10.7223C7.55783 10.8172 7.60796 10.9049 7.67381 10.9802L11.0233 15.0002L7.67381 19.0202C7.55211 19.1735 7.49521 19.3684 7.51528 19.5632C7.53534 19.758 7.63078 19.9371 7.78119 20.0625C7.9316 20.1878 8.12507 20.2494 8.32026 20.234C8.51545 20.2186 8.69689 20.1275 8.8258 19.9802L11.9998 16.1717L15.1738 19.9817C15.3013 20.1344 15.4843 20.2303 15.6825 20.2481C15.7806 20.257 15.8795 20.2464 15.9735 20.217C16.0676 20.1877 16.1549 20.14 16.2306 20.0769C16.3062 20.0138 16.3687 19.9364 16.4144 19.8491C16.4601 19.7618 16.4882 19.6664 16.497 19.5683C16.5059 19.4701 16.4953 19.3712 16.4659 19.2772C16.4366 19.1831 16.3889 19.0958 16.3258 19.0202L12.9763 15.0002L16.3258 10.9802C16.4475 10.8268 16.5044 10.6319 16.4843 10.4371C16.4643 10.2424 16.3688 10.0632 16.2184 9.93782C16.068 9.81247 15.8745 9.75092 15.6793 9.7663C15.4842 9.78169 15.3027 9.87279 15.1738 10.0202L11.9998 13.8287L8.8258 10.0202Z" fill="white"/>
<path d="M21 21V6.75L14.25 0H6C5.20435 0 4.44129 0.316071 3.87868 0.87868C3.31607 1.44129 3 2.20435 3 3V21C3 21.7956 3.31607 22.5587 3.87868 23.1213C4.44129 23.6839 5.20435 24 6 24H18C18.7956 24 19.5587 23.6839 20.1213 23.1213C20.6839 22.5587 21 21.7956 21 21ZM14.25 4.5C14.25 5.09674 14.4871 5.66903 14.909 6.09099C15.331 6.51295 15.9033 6.75 16.5 6.75H19.5V21C19.5 21.3978 19.342 21.7794 19.0607 22.0607C18.7794 22.342 18.3978 22.5 18 22.5H6C5.60218 22.5 5.22064 22.342 4.93934 22.0607C4.65804 21.7794 4.5 21.3978 4.5 21V3C4.5 2.60218 4.65804 2.22064 4.93934 1.93934C5.22064 1.65804 5.60218 1.5 6 1.5H14.25V4.5Z" fill="white"/>
</svg>
