<svg width="22" height="22" viewBox="0 0 22 22" fill="none" xmlns="http://www.w3.org/2000/svg">
<path d="M12.8332 10.0835H7.33317M9.1665 13.7502H7.33317M14.6665 6.41683H7.33317M18.3332 11.0002V6.2335C18.3332 4.69335 18.3332 3.92328 18.0334 3.33502C17.7698 2.81758 17.3491 2.39688 16.8316 2.13323C16.2434 1.8335 15.4733 1.8335 13.9332 1.8335H8.0665C6.52636 1.8335 5.75629 1.8335 5.16803 2.13323C4.65058 2.39688 4.22989 2.81758 3.96624 3.33502C3.6665 3.92328 3.6665 4.69335 3.6665 6.2335V15.7668C3.6665 17.307 3.6665 18.077 3.96624 18.6653C4.22989 19.1827 4.65058 19.6034 5.16803 19.8671C5.75629 20.1668 6.52636 20.1668 8.0665 20.1668H10.9998M14.6665 14.6668L19.2498 19.2502M19.2498 14.6668L14.6665 19.2502" stroke="white" stroke-width="2" stroke-linecap="round" stroke-linejoin="round"/>
</svg>
