<svg width="34" height="46" viewBox="0 0 34 46" fill="none" xmlns="http://www.w3.org/2000/svg">
<g opacity="0.4">
<path d="M19.1722 44.0447C17.8587 44.4807 16.501 44.8333 15.1306 45.0962C14.8843 45.141 14.7265 45.3847 14.777 45.6283C14.8149 45.8463 15.0043 46.0001 15.219 46.0001C15.2443 46.0001 15.2759 46.0001 15.3011 45.9937C16.7031 45.7245 18.0987 45.359 19.4501 44.9166C19.6837 44.8397 19.8164 44.5833 19.7406 44.3396C19.6648 44.096 19.4122 43.9678 19.1722 44.0447Z" fill="#3384D8"/>
<path d="M30.5961 37.2488C28.7269 39.0247 26.643 40.589 24.4074 41.8905C23.416 42.4675 22.3866 42.9996 21.351 43.4676C21.1236 43.5702 21.0226 43.8395 21.1236 44.0703C21.1994 44.237 21.3636 44.3395 21.5341 44.3395C21.5973 44.3395 21.6541 44.3267 21.7172 44.3011C22.7845 43.8202 23.8391 43.2753 24.8558 42.6791C27.1482 41.3391 29.2889 39.7363 31.2087 37.9092C31.3918 37.7361 31.3982 37.4476 31.2277 37.268C31.0571 37.0885 30.7793 37.0821 30.5961 37.2488Z" fill="#3384D8"/>
<path d="M23.138 40.9289C23.0306 40.7045 22.7654 40.6084 22.5381 40.7173C18.7743 42.5574 14.7138 43.6088 10.4701 43.8396C10.2238 43.8524 10.0344 44.0704 10.047 44.3204C10.0596 44.564 10.2554 44.75 10.4953 44.75C10.5017 44.75 10.5143 44.75 10.5206 44.75C14.878 44.5128 19.0522 43.4293 22.9296 41.538C23.1506 41.429 23.2453 41.1533 23.138 40.9289Z" fill="#3384D8"/>
<path d="M32.6294 32.947C30.476 35.4281 27.9689 37.5502 25.1967 39.2556C24.9819 39.3838 24.9188 39.6659 25.0451 39.8839C25.1272 40.0249 25.2788 40.1018 25.4303 40.1018C25.5061 40.1018 25.5882 40.0826 25.664 40.0377C28.5184 38.2875 31.0949 36.1077 33.3114 33.5561C33.4756 33.3701 33.4567 33.0816 33.2736 32.9149C33.0778 32.7418 32.7936 32.7611 32.6294 32.947Z" fill="#3384D8"/>
<path d="M16.1346 41.6149C16.0778 41.3712 15.8378 41.2174 15.5978 41.2751C13.356 41.8008 11.0195 42.0701 8.64502 42.0701C8.23454 42.0701 7.82407 42.0636 7.38201 42.0444C7.13573 42.0316 6.92733 42.2303 6.9147 42.4804C6.90839 42.7304 7.09784 42.942 7.34412 42.9548C7.79881 42.974 8.22191 42.9804 8.64502 42.9804C11.0826 42.9804 13.4886 42.7048 15.7999 42.1662C16.0399 42.1085 16.1851 41.8585 16.1346 41.6149Z" fill="#3384D8"/>
<path d="M33.7914 29.2542C33.5893 29.1067 33.3115 29.1516 33.1662 29.3567C30.3876 33.2675 26.8638 36.377 22.6959 38.5952C21.193 39.3966 19.6205 40.0634 18.0291 40.5891C17.7955 40.666 17.6629 40.9225 17.7386 41.1597C17.8018 41.352 17.9786 41.4738 18.1681 41.4738C18.2123 41.4738 18.2628 41.4674 18.307 41.4546C19.9489 40.916 21.5719 40.2236 23.119 39.3966C27.4132 37.1142 31.0381 33.9087 33.8987 29.8825C34.0377 29.6837 33.9935 29.4016 33.7914 29.2542Z" fill="#3384D8"/>
<path d="M33.7787 25.882C33.564 25.7538 33.2925 25.8243 33.1662 26.0423C30.4318 30.7224 26.5228 34.505 21.8623 36.9861C17.8018 39.1531 13.3497 40.2494 8.64499 40.2494C7.47672 40.2494 6.2895 40.1789 5.12754 40.0378C4.88125 40.0058 4.66023 40.1853 4.62865 40.4353C4.59708 40.6853 4.7739 40.9097 5.02018 40.9418C6.22003 41.0828 7.43883 41.1598 8.63868 41.1598C13.4949 41.1598 18.0796 40.025 22.2728 37.7939C27.0785 35.2295 31.1075 31.3315 33.9303 26.5039C34.0629 26.2859 33.9871 26.0102 33.7787 25.882Z" fill="#3384D8"/>
<path d="M3.04993 8.59112C3.08151 8.59112 3.11308 8.58471 3.14466 8.5783C4.0035 8.38596 4.87497 8.26415 5.74644 8.22569C5.97378 8.21286 6.15692 8.03335 6.17586 7.80255C6.25796 6.66778 6.45372 5.53941 6.76947 4.45593C6.83894 4.21231 6.70632 3.96227 6.46635 3.89175C6.22638 3.82123 5.9801 3.95586 5.91063 4.19948C5.61383 5.21886 5.41175 6.2767 5.31702 7.34095C4.52765 7.39865 3.73196 7.51405 2.95521 7.69356C2.71524 7.75126 2.56368 7.98847 2.6142 8.23851C2.6584 8.45008 2.84154 8.59112 3.04993 8.59112Z" fill="#3384D8"/>
<path d="M21.4457 36.1783C27.0029 33.2163 31.3287 28.4849 33.962 22.4969C34.0631 22.2661 33.962 21.9968 33.7347 21.8943C33.5074 21.7917 33.2421 21.8943 33.1411 22.1251C30.5898 27.9271 26.403 32.5111 21.0289 35.3705C17.2273 37.3964 13.0594 38.4222 8.64518 38.4222C7.25588 38.4222 5.84763 38.3196 4.46465 38.1081C4.14258 38.0632 3.80789 37.9991 3.47319 37.9221C3.23322 37.8644 2.99325 38.0247 2.93642 38.2683C2.87958 38.512 3.03746 38.7556 3.27743 38.8133C3.63738 38.8966 3.99734 38.9607 4.33835 39.012C5.76554 39.23 7.21799 39.3326 8.6515 39.3326C13.2046 39.339 17.5115 38.2747 21.4457 36.1783Z" fill="#3384D8"/>
<path d="M7.47689 8.88614C7.48321 8.88614 7.48952 8.88614 7.48952 8.88614C7.72949 8.88614 7.93157 8.6938 7.93789 8.44377C8.00735 6.43066 8.48729 4.4945 9.37139 2.68655C9.47875 2.46216 9.39034 2.18648 9.16931 2.07749C8.94829 1.9685 8.67674 2.05826 8.56939 2.28265C7.62845 4.206 7.11694 6.26397 7.04747 8.41171C7.03484 8.66174 7.22429 8.87331 7.47689 8.88614Z" fill="#3384D8"/>
<path d="M1.86909 10.822C1.91961 10.822 1.97013 10.8156 2.01434 10.7964C3.45416 10.2899 4.96345 10.0334 6.49168 10.0334C6.73796 10.0334 6.94004 9.82827 6.94004 9.57824C6.94004 9.3282 6.73796 9.12305 6.49168 9.12305C4.86241 9.12305 3.25839 9.39873 1.72385 9.93726C1.49019 10.0206 1.36389 10.2771 1.44599 10.5143C1.50914 10.7066 1.67964 10.822 1.86909 10.822Z" fill="#3384D8"/>
<path d="M8.64535 37.5117C12.9143 37.5117 16.9369 36.518 20.6123 34.5626C27.022 31.1518 31.7898 24.9843 33.7854 17.5666C33.8864 17.2012 34.1832 16.5088 33.7159 16.3036C33.457 16.1882 33.1665 16.3485 33.1034 16.6114C31.2973 24.0996 26.5863 30.3505 20.1955 33.7612C16.6528 35.6461 12.7627 36.6077 8.64535 36.6077C7.35077 36.6077 6.03093 36.5116 4.72373 36.3128C3.85857 36.1846 3.01868 35.9602 2.22298 35.6589C1.98933 35.5691 1.73041 35.6909 1.64832 35.9217C1.55991 36.159 1.67989 36.4218 1.90723 36.5052C2.76607 36.8321 3.66912 37.0693 4.59743 37.2104C5.94252 37.4091 7.30656 37.5117 8.64535 37.5117Z" fill="#3384D8"/>
<path d="M8.82844 9.28357C8.83475 9.53361 9.03683 9.72594 9.2768 9.72594C9.28312 9.72594 9.28312 9.72594 9.28943 9.72594C9.53572 9.71953 9.73148 9.50796 9.72517 9.25793C9.6557 6.46908 10.5335 3.70587 12.207 1.4812C12.3585 1.28246 12.3206 0.993955 12.1249 0.840088C11.9291 0.68622 11.6449 0.724687 11.4934 0.923432C9.69991 3.3212 8.75266 6.28315 8.82844 9.28357Z" fill="#3384D8"/>
<path d="M0.637517 12.848C0.738557 13.0981 1.02905 13.1942 1.25007 13.0788C2.9046 12.2646 4.66649 11.8479 6.49153 11.8479C7.08514 11.8479 7.68506 11.8928 8.26605 11.9825C8.51233 12.021 8.73967 11.8479 8.77756 11.5978C8.81545 11.3478 8.64495 11.117 8.39866 11.0785C7.77348 10.9824 7.13566 10.9375 6.49153 10.9375C4.54019 10.9375 2.652 11.3799 0.883803 12.2454C0.669092 12.3287 0.536477 12.6044 0.637517 12.848Z" fill="#3384D8"/>
<path d="M8.64495 35.6908C12.6171 35.6908 16.3619 34.7676 19.7783 32.9532C27.4321 28.8758 32.3704 20.8234 32.9893 11.4246C33.0083 11.1746 32.8188 10.9566 32.5725 10.9374C32.3262 10.9181 32.1115 11.1105 32.0926 11.3605C31.499 20.4451 26.7375 28.209 19.3615 32.1454C16.0777 33.8957 12.4718 34.7804 8.64495 34.7804C7.43247 34.7804 6.20736 34.6907 4.98857 34.5047C3.69399 34.3124 2.47519 33.8829 1.35744 33.2289C1.14273 33.1007 0.871181 33.1776 0.744881 33.3956C0.618581 33.6136 0.694361 33.8893 0.909071 34.0175C2.12155 34.7227 3.4477 35.1907 4.85595 35.4023C6.11895 35.5946 7.38827 35.6908 8.64495 35.6908Z" fill="#3384D8"/>
<path d="M0.580993 15.4894C0.663088 15.4894 0.751498 15.4638 0.827278 15.4125C2.94281 13.9892 5.47512 13.4122 8.00113 13.7841C8.21584 13.8161 8.43055 13.8354 8.63894 13.8354C9.08731 13.8354 9.48515 13.752 9.77564 13.5981C10.685 13.1109 11.5817 11.4504 11.5249 9.21291C11.4428 5.96887 12.8195 2.92357 15.295 0.852771C15.4844 0.692493 15.516 0.403991 15.3581 0.211656C15.2002 0.0193218 14.9161 -0.0127339 14.7266 0.147545C12.0364 2.39786 10.5461 5.70601 10.6345 9.23214C10.685 11.194 9.92089 12.4954 9.36517 12.7903C9.27044 12.8416 9.05573 12.925 8.64526 12.925C8.48107 12.925 8.31056 12.9121 8.14006 12.8865C5.38671 12.4826 2.63969 13.1109 0.341023 14.656C0.132628 14.797 0.0757926 15.0791 0.214723 15.2843C0.296818 15.4189 0.435748 15.4894 0.580993 15.4894Z" fill="#3384D8"/>
<path d="M8.64495 33.8701C12.3266 33.8701 15.7872 33.0174 18.9447 31.3377C26.788 27.1576 31.499 18.4833 31.2527 8.6871C31.2464 8.39219 31.2211 8.09086 31.1895 7.76389C31.1706 7.54591 30.9811 7.34717 30.7412 7.34717C30.4949 7.34717 30.2928 7.55232 30.2928 7.80236C30.2928 7.82159 30.2928 7.84083 30.2928 7.85365C30.3307 8.15497 30.3496 8.43065 30.356 8.70633C30.5959 18.15 26.0681 26.5101 18.5279 30.5235C15.5031 32.1327 12.175 32.9533 8.64495 32.9533C7.51457 32.9533 6.37155 32.87 5.2538 32.6969C3.62452 32.4532 2.10892 31.748 0.88381 30.6517C0.700675 30.485 0.4165 30.5042 0.252309 30.6902C0.0881191 30.8761 0.107064 31.1646 0.290199 31.3313C1.64793 32.543 3.31509 33.3187 5.12118 33.588C6.28314 33.7803 7.47036 33.8701 8.64495 33.8701Z" fill="#3384D8"/>
<path d="M0.448225 17.9001C0.55558 17.9001 0.662935 17.8616 0.751345 17.7782C2.33641 16.3037 4.37616 15.4959 6.49169 15.4959C6.90848 15.4959 7.33158 15.5279 7.74206 15.592C8.03886 15.6369 8.34198 15.6561 8.63879 15.6561C9.39028 15.6561 10.0534 15.5087 10.6091 15.2138C12.2952 14.3162 13.3877 11.8864 13.3119 9.16807C13.2235 5.53936 15.4022 2.21197 18.7302 0.884862C18.9638 0.795106 19.0775 0.525838 18.9828 0.295037C18.8944 0.057824 18.6291 -0.0511655 18.4018 0.0385906C14.7201 1.50674 12.3141 5.18033 12.4152 9.19371C12.4783 11.5722 11.5816 13.6687 10.1923 14.4124C9.76917 14.6368 9.25134 14.7522 8.63879 14.7522C8.37987 14.7522 8.12096 14.7329 7.86836 14.6945C7.41368 14.624 6.95268 14.5919 6.48537 14.5919C4.1425 14.5919 1.88805 15.4895 0.13879 17.1115C-0.0443456 17.2782 -0.0569757 17.5667 0.11353 17.7526C0.208255 17.8488 0.32824 17.9001 0.448225 17.9001Z" fill="#3384D8"/>
<path d="M5.38 31.8056C6.46618 31.9659 7.56499 32.0492 8.64486 32.0492C12.0297 32.0492 15.2188 31.2671 18.1111 29.7284C25.3417 25.8753 29.6865 17.8357 29.4591 8.73831C29.4023 6.62904 28.5434 4.68005 27.0468 3.2696L26.9836 3.20548L26.971 3.19907C26.3079 2.5836 25.5564 2.10277 24.7355 1.76939C24.6281 1.72451 24.5145 1.67963 24.4008 1.64116L24.325 1.6027H24.2934C23.5104 1.33343 22.6831 1.19238 21.8306 1.19238C21.7674 1.19238 21.7106 1.19238 21.6348 1.19238C17.4354 1.31419 14.101 4.87238 14.2084 9.14221C14.2905 12.2452 13.0401 14.9443 11.0193 16.0214C10.4825 16.3035 9.86997 16.483 9.20058 16.5471C8.9543 16.5727 8.77116 16.7907 8.79642 17.0407C8.82168 17.2908 9.03639 17.4767 9.28268 17.4511C10.0721 17.3805 10.7983 17.169 11.4361 16.8292C13.7537 15.5982 15.1935 12.5722 15.1051 9.12298C15.0104 5.35963 17.9469 2.21817 21.6538 2.11559C21.7169 2.11559 21.7738 2.11559 21.8243 2.11559C22.5947 2.11559 23.3399 2.24381 24.0472 2.49385C24.8934 2.91057 25.6954 3.40423 26.4342 3.94918C27.7541 5.19935 28.5056 6.91113 28.5498 8.77036C28.7708 17.5152 24.6092 25.2406 17.6816 28.927C14.9157 30.4016 11.8718 31.1453 8.63223 31.1453C7.59657 31.1453 6.54196 31.0683 5.49999 30.9081C3.71915 30.6388 2.15303 29.6899 1.0858 28.2282C0.991072 28.1 0.902662 27.9653 0.814252 27.8307C0.681636 27.6191 0.403776 27.555 0.195381 27.6961C-0.000384374 27.8243 -0.0635344 28.1064 0.0690807 28.318C0.163806 28.4654 0.264846 28.6193 0.372201 28.7667C1.591 30.4208 3.36551 31.5043 5.38 31.8056Z" fill="#3384D8"/>
<path d="M0.208412 20.6185C0.284192 20.6698 0.366287 20.689 0.448382 20.689C0.593627 20.689 0.738872 20.6121 0.827282 20.4775C2.06502 18.5221 4.23739 17.3103 6.49184 17.3103C6.82654 17.3103 7.15492 17.336 7.47698 17.3809C7.72327 17.4193 7.95061 17.2462 7.9885 16.9962C8.02639 16.7462 7.85589 16.5154 7.6096 16.4769C7.24333 16.4192 6.87074 16.3936 6.49184 16.3936C3.89638 16.3936 1.49667 17.7335 0.0694814 19.9774C-0.0631337 20.2018 1.63209e-05 20.4839 0.208412 20.6185Z" fill="#3384D8"/>
<path d="M11.8597 17.6305C10.9124 18.1306 9.83257 18.3871 8.63903 18.3871C8.20961 18.3871 7.77388 18.355 7.34446 18.2909C7.06028 18.246 6.77611 18.2268 6.49193 18.2268C3.62492 18.2268 1.14312 20.4002 0.726329 23.2852C0.498989 24.8495 0.884204 26.4074 1.81251 27.6768C2.74082 28.9462 4.10486 29.7733 5.64572 30.0041C6.64349 30.1515 7.64758 30.2285 8.64535 30.2285C11.7397 30.2285 14.6446 29.5168 17.278 28.1128C23.8961 24.5866 27.8745 17.1818 27.6598 8.78316C27.5777 5.55194 25.0138 3.01953 21.8311 3.01953C21.7869 3.01953 21.7364 3.01953 21.6795 3.01953C18.4652 3.10288 15.9202 5.82762 16.0023 9.09089C16.1034 12.8863 14.4741 16.2393 11.8597 17.6305ZM16.8991 9.07166C16.8296 6.30845 18.983 4.00685 21.7048 3.93633C21.749 3.93633 21.7932 3.93633 21.8311 3.93633C24.5276 3.93633 26.6936 6.07765 26.7631 8.81521C26.9715 16.8548 23.1762 23.9455 16.8612 27.305C14.3541 28.6385 11.5945 29.3117 8.64535 29.3117C7.69178 29.3117 6.72559 29.2411 5.77833 29.0937C4.47744 28.9013 3.3218 28.2025 2.53874 27.1255C1.75568 26.0484 1.42729 24.7341 1.61674 23.407C1.97039 20.9708 4.06697 19.1308 6.49193 19.1308C6.7319 19.1308 6.97819 19.15 7.21816 19.182C7.69178 19.2526 8.17172 19.291 8.64535 19.291C9.98413 19.291 11.2029 19.0025 12.2828 18.4255C15.194 16.8868 17.0064 13.2068 16.8991 9.07166Z" fill="#3384D8"/>
<path d="M7.08522 20.0925C6.88946 20.0604 6.68738 20.0476 6.49161 20.0476C4.5087 20.0476 2.79102 21.5542 2.50053 23.5481C2.34265 24.6316 2.60788 25.7086 3.25201 26.587C3.89614 27.4653 4.83708 28.0359 5.90432 28.1962C6.81368 28.3308 7.73567 28.4013 8.64503 28.4013C11.4489 28.4013 14.0696 27.7602 16.4441 26.4972C17.7197 25.8176 18.9069 24.9649 19.9742 23.9648C20.1573 23.7917 20.1699 23.5032 19.9994 23.3237C19.8289 23.1378 19.5447 23.1249 19.3679 23.298C18.3575 24.2469 17.2334 25.0483 16.0336 25.6958C13.7918 26.8883 11.3036 27.4973 8.65134 27.4973C7.78619 27.4973 6.9084 27.4332 6.04325 27.305C5.21598 27.1832 4.48344 26.7344 3.98455 26.0548C3.48567 25.3688 3.27727 24.529 3.39726 23.6891C3.6246 22.1376 4.95707 20.9644 6.49793 20.9644C6.64949 20.9644 6.80736 20.9772 6.95892 20.9964C7.52096 21.0798 8.08931 21.1247 8.64503 21.1247C10.2743 21.1247 11.7773 20.7656 13.1161 20.054C16.6335 18.1819 18.8248 13.8544 18.7048 9.02681C18.6606 7.27016 20.031 5.802 21.7613 5.75713C21.7866 5.75713 21.8181 5.75713 21.8434 5.75713C23.5611 5.75713 24.9377 7.1227 24.982 8.86012C25.1083 13.7775 23.6116 18.3743 20.7762 21.8042C20.6183 21.9966 20.6435 22.2851 20.833 22.4454C21.0224 22.6056 21.3066 22.58 21.4645 22.3877C24.4452 18.7846 26.0113 13.9698 25.8787 8.83448C25.8218 6.59699 24.0473 4.84033 21.8434 4.84033C21.8118 4.84033 21.7802 4.84033 21.7424 4.84033C19.5195 4.89803 17.7576 6.78291 17.8144 9.04605C17.9281 13.5274 15.9262 17.528 12.7056 19.2462C11.4994 19.8873 10.1354 20.2143 8.65134 20.2143C8.1272 20.2079 7.60305 20.1694 7.08522 20.0925Z" fill="#3384D8"/>
<path d="M13.5266 20.8557C11.0575 22.17 8.51884 22.1507 6.82011 21.8943C6.2265 21.8045 5.63289 21.9584 5.15295 22.3174C4.67301 22.6829 4.35725 23.2086 4.27516 23.8112C4.18675 24.4139 4.33831 25.0101 4.69195 25.5038C5.05191 25.991 5.56974 26.3116 6.16335 26.4013C6.9843 26.5231 7.81788 26.5872 8.63883 26.5872C11.1459 26.5872 13.4888 26.0167 15.6043 24.8883C21.0036 22.0097 24.2495 15.8742 24.0727 8.87965C24.0411 7.62948 23.0055 6.62934 21.774 6.66139C20.5363 6.69345 19.5575 7.73847 19.5891 8.99505C19.7217 14.1688 17.3409 18.8233 13.5266 20.8557ZM20.4858 8.97582C20.4668 8.22571 21.0541 7.59742 21.793 7.57178C22.5382 7.55254 23.157 8.14878 23.176 8.89889C23.3465 15.5472 20.2837 21.3622 15.1875 24.0805C13.2046 25.1383 11.0006 25.6705 8.63883 25.6705C7.86208 25.6705 7.07271 25.6128 6.29596 25.4974C5.94232 25.4461 5.62657 25.2537 5.41186 24.9588C5.19715 24.6639 5.10874 24.3049 5.15926 23.9459C5.20978 23.5868 5.39923 23.2663 5.68972 23.0483C5.92338 22.8688 6.20124 22.779 6.49173 22.779C6.55488 22.779 6.62434 22.7854 6.69381 22.7918C8.51884 23.0675 11.2596 23.0868 13.9434 21.6571C18.0608 19.4709 20.631 14.4894 20.4858 8.97582Z" fill="#3384D8"/>
<path d="M21.3192 13.7584C21.3508 13.7648 21.3887 13.7712 21.4203 13.7712C21.6224 13.7712 21.8118 13.6302 21.856 13.4186C22.1781 11.9697 22.3233 10.4567 22.2854 8.9308C22.2791 8.68077 22.077 8.48202 21.8244 8.48843C21.5782 8.49484 21.3824 8.70641 21.3887 8.95645C21.4266 10.4118 21.2877 11.8415 20.9846 13.2199C20.9214 13.4571 21.073 13.7071 21.3192 13.7584Z" fill="#3384D8"/>
<path d="M6.56122 23.6958C6.31493 23.6573 6.08759 23.8304 6.0497 24.0805C6.01181 24.3305 6.18232 24.5613 6.42861 24.5998C7.07274 24.6959 7.82422 24.7665 8.63886 24.7665C10.4576 24.7665 12.6236 24.4203 14.7707 23.2791C17.5746 21.7853 19.8164 19.1695 21.0921 15.9062C21.1805 15.6754 21.0731 15.4062 20.8395 15.3164C20.6121 15.2267 20.3469 15.3357 20.2585 15.5729C19.0649 18.631 16.9684 21.08 14.3539 22.4713C11.4554 24.0164 8.51887 23.9907 6.56122 23.6958Z" fill="#3384D8"/>
</g>
</svg>
