<svg width="28" height="28" viewBox="0 0 28 28" fill="none" xmlns="http://www.w3.org/2000/svg">
<g opacity="0.2">
<path d="M14.4114 11.4546V16.8764H21.9459C21.615 18.6201 20.6222 20.0965 19.1331 21.0892L23.6767 24.6147C26.324 22.1711 27.8513 18.582 27.8513 14.3184C27.8513 13.3257 27.7622 12.371 27.5967 11.4547L14.4114 11.4546Z" fill="white"/>
<path d="M6.56542 16.6648L5.54066 17.4492L1.91333 20.2746C4.21696 24.8437 8.93843 28.0001 14.4111 28.0001C18.191 28.0001 21.3601 26.7528 23.6765 24.6147L19.1329 21.0892C17.8856 21.9292 16.2947 22.4383 14.4111 22.4383C10.7711 22.4383 7.6785 19.982 6.57114 16.6729L6.56542 16.6648Z" fill="white"/>
<path d="M1.91333 7.72534C0.958837 9.6089 0.411621 11.7344 0.411621 13.9998C0.411621 16.2652 0.958837 18.3907 1.91333 20.2743C1.91333 20.2869 6.57159 16.6597 6.57159 16.6597C6.29159 15.8197 6.12609 14.9289 6.12609 13.9997C6.12609 13.0704 6.29159 12.1796 6.57159 11.3396L1.91333 7.72534Z" fill="white"/>
<path d="M14.4114 5.57454C16.4732 5.57454 18.3059 6.28725 19.7696 7.66181L23.7786 3.65277C21.3477 1.38736 18.1915 0 14.4114 0C8.93872 0 4.21696 3.14363 1.91333 7.72546L6.57145 11.34C7.67865 8.03089 10.7714 5.57454 14.4114 5.57454Z" fill="white"/>
</g>
</svg>
