<svg width="29" height="28" viewBox="0 0 29 28" fill="none" xmlns="http://www.w3.org/2000/svg">
<g opacity="0.2" clip-path="url(#clip0_143_2853)">
<path d="M14.4707 2.52109C18.2113 2.52109 18.6543 2.5375 20.1254 2.60312C21.4926 2.66328 22.2309 2.89297 22.723 3.08438C23.3738 3.33594 23.8441 3.64219 24.3309 4.12891C24.823 4.62109 25.1238 5.08594 25.3754 5.73672C25.5668 6.22891 25.7965 6.97266 25.8566 8.33437C25.9223 9.81094 25.9387 10.2539 25.9387 13.9891C25.9387 17.7297 25.9223 18.1727 25.8566 19.6438C25.7965 21.0109 25.5668 21.7492 25.3754 22.2414C25.1238 22.8922 24.8176 23.3625 24.3309 23.8492C23.8387 24.3414 23.3738 24.6422 22.723 24.8938C22.2309 25.0852 21.4871 25.3148 20.1254 25.375C18.6488 25.4406 18.2059 25.457 14.4707 25.457C10.7301 25.457 10.2871 25.4406 8.81602 25.375C7.44883 25.3148 6.71055 25.0852 6.21836 24.8938C5.56758 24.6422 5.09727 24.3359 4.61055 23.8492C4.11836 23.357 3.81758 22.8922 3.56602 22.2414C3.37461 21.7492 3.14492 21.0055 3.08477 19.6438C3.01914 18.1672 3.00273 17.7242 3.00273 13.9891C3.00273 10.2484 3.01914 9.80547 3.08477 8.33437C3.14492 6.96719 3.37461 6.22891 3.56602 5.73672C3.81758 5.08594 4.12383 4.61562 4.61055 4.12891C5.10273 3.63672 5.56758 3.33594 6.21836 3.08438C6.71055 2.89297 7.4543 2.66328 8.81602 2.60312C10.2871 2.5375 10.7301 2.52109 14.4707 2.52109ZM14.4707 0C10.6699 0 10.1941 0.0164062 8.70117 0.0820312C7.21367 0.147656 6.19102 0.388281 5.30508 0.732812C4.38086 1.09375 3.59883 1.56953 2.82227 2.35156C2.04023 3.12812 1.56445 3.91016 1.20352 4.82891C0.858984 5.72031 0.618359 6.7375 0.552734 8.225C0.487109 9.72344 0.470703 10.1992 0.470703 14C0.470703 17.8008 0.487109 18.2766 0.552734 19.7695C0.618359 21.257 0.858984 22.2797 1.20352 23.1656C1.56445 24.0898 2.04023 24.8719 2.82227 25.6484C3.59883 26.425 4.38086 26.9062 5.29961 27.2617C6.19102 27.6062 7.2082 27.8469 8.6957 27.9125C10.1887 27.9781 10.6645 27.9945 14.4652 27.9945C18.266 27.9945 18.7418 27.9781 20.2348 27.9125C21.7223 27.8469 22.7449 27.6062 23.6309 27.2617C24.5496 26.9062 25.3316 26.425 26.1082 25.6484C26.8848 24.8719 27.366 24.0898 27.7215 23.1711C28.066 22.2797 28.3066 21.2625 28.3723 19.775C28.4379 18.282 28.4543 17.8062 28.4543 14.0055C28.4543 10.2047 28.4379 9.72891 28.3723 8.23594C28.3066 6.74844 28.066 5.72578 27.7215 4.83984C27.377 3.91016 26.9012 3.12812 26.1191 2.35156C25.3426 1.575 24.5605 1.09375 23.6418 0.738281C22.7504 0.39375 21.7332 0.153125 20.2457 0.0875C18.7473 0.0164063 18.2715 0 14.4707 0Z" fill="white"/>
<path d="M14.4707 6.80859C10.5004 6.80859 7.2793 10.0297 7.2793 14C7.2793 17.9703 10.5004 21.1914 14.4707 21.1914C18.441 21.1914 21.6621 17.9703 21.6621 14C21.6621 10.0297 18.441 6.80859 14.4707 6.80859ZM14.4707 18.6648C11.8949 18.6648 9.80586 16.5758 9.80586 14C9.80586 11.4242 11.8949 9.33516 14.4707 9.33516C17.0465 9.33516 19.1355 11.4242 19.1355 14C19.1355 16.5758 17.0465 18.6648 14.4707 18.6648Z" fill="white"/>
<path d="M23.6254 6.52412C23.6254 7.45381 22.8707 8.20303 21.9465 8.20303C21.0168 8.20303 20.2676 7.44834 20.2676 6.52412C20.2676 5.59443 21.0223 4.84521 21.9465 4.84521C22.8707 4.84521 23.6254 5.5999 23.6254 6.52412Z" fill="white"/>
</g>
<defs>
<clipPath id="clip0_143_2853">
<rect width="28" height="28" fill="white" transform="translate(0.470703)"/>
</clipPath>
</defs>
</svg>
