<svg width="29" height="28" viewBox="0 0 29 28" fill="none" xmlns="http://www.w3.org/2000/svg">
<g opacity="0.2">
<path d="M26.8685 0H3.00835C1.86538 0 0.941162 0.902344 0.941162 2.01797V25.9766C0.941162 27.0922 1.86538 28 3.00835 28H26.8685C28.0115 28 28.9412 27.0922 28.9412 25.982V2.01797C28.9412 0.902344 28.0115 0 26.8685 0ZM9.24819 23.8602H5.09194V10.4945H9.24819V23.8602ZM7.17007 8.67344C5.83569 8.67344 4.75835 7.59609 4.75835 6.26719C4.75835 4.93828 5.83569 3.86094 7.17007 3.86094C8.49897 3.86094 9.57632 4.93828 9.57632 6.26719C9.57632 7.59062 8.49897 8.67344 7.17007 8.67344ZM24.8013 23.8602H20.6505V17.3633C20.6505 15.8156 20.6232 13.8195 18.4904 13.8195C16.3302 13.8195 16.0021 15.5094 16.0021 17.2539V23.8602H11.8568V10.4945H15.838V12.3211H15.8927C16.4451 11.2711 17.8013 10.1609 19.8193 10.1609C24.0248 10.1609 24.8013 12.9281 24.8013 16.5266V23.8602Z" fill="white"/>
</g>
</svg>
