<svg width="20" height="20" viewBox="0 0 20 20" fill="none" xmlns="http://www.w3.org/2000/svg">
<path d="M3.33333 4.99984L8.42303 8.84339L8.42473 8.8448C8.98987 9.25924 9.27261 9.46658 9.5823 9.54668C9.85602 9.61748 10.1438 9.61748 10.4175 9.54668C10.7274 9.46651 11.011 9.25856 11.5771 8.84339C11.5771 8.84339 14.8417 6.33812 16.6667 4.99984M2.5 13.1667V6.83333C2.5 5.89991 2.5 5.43285 2.68166 5.07633C2.84144 4.76273 3.09623 4.50795 3.40983 4.34816C3.76635 4.1665 4.23341 4.1665 5.16683 4.1665H14.8335C15.7669 4.1665 16.233 4.1665 16.5895 4.34816C16.9031 4.50795 17.1587 4.76273 17.3185 5.07633C17.5 5.43251 17.5 5.899 17.5 6.8306V13.1695C17.5 14.1011 17.5 14.5669 17.3185 14.9231C17.1587 15.2367 16.9031 15.4919 16.5895 15.6517C16.2333 15.8332 15.7675 15.8332 14.8359 15.8332H5.16409C4.23249 15.8332 3.766 15.8332 3.40983 15.6517C3.09623 15.4919 2.84144 15.2367 2.68166 14.9231C2.5 14.5666 2.5 14.1001 2.5 13.1667Z" stroke="white" stroke-width="2" stroke-linecap="round" stroke-linejoin="round"/>
</svg>
