<svg width="22" height="22" viewBox="0 0 22 22" fill="none" xmlns="http://www.w3.org/2000/svg">
<g clip-path="url(#clip0_376_6742)">
<path d="M16.5002 6.41683V4.76683C16.5002 3.74007 16.5002 3.22669 16.3003 2.83451C16.1246 2.48955 15.8441 2.20909 15.4991 2.03332C15.107 1.8335 14.5936 1.8335 13.5668 1.8335H8.4335C7.40673 1.8335 6.89335 1.8335 6.50118 2.03332C6.15622 2.20909 5.87575 2.48955 5.69998 2.83451C5.50016 3.22669 5.50016 3.74007 5.50016 4.76683V6.41683M5.50016 16.5002C4.64769 16.5002 4.22145 16.5002 3.87174 16.4065C2.92274 16.1522 2.18148 15.4109 1.9272 14.4619C1.8335 14.1122 1.8335 13.686 1.8335 12.8335V10.8168C1.8335 9.27669 1.8335 8.50661 2.13323 7.91836C2.39688 7.40091 2.81758 6.98021 3.33502 6.71656C3.92328 6.41683 4.69335 6.41683 6.2335 6.41683H15.7668C17.307 6.41683 18.077 6.41683 18.6653 6.71656C19.1827 6.98021 19.6034 7.40091 19.8671 7.91836C20.1668 8.50661 20.1668 9.27669 20.1668 10.8168V12.8335C20.1668 13.686 20.1668 14.1122 20.0731 14.4619C19.8188 15.4109 19.0776 16.1522 18.1286 16.4065C17.7789 16.5002 17.3526 16.5002 16.5002 16.5002M13.7502 9.62516H16.5002M8.4335 20.1668H13.5668C14.5936 20.1668 15.107 20.1668 15.4991 19.967C15.8441 19.7912 16.1246 19.5108 16.3003 19.1658C16.5002 18.7736 16.5002 18.2603 16.5002 17.2335V15.7668C16.5002 14.7401 16.5002 14.2267 16.3003 13.8345C16.1246 13.4896 15.8441 13.2091 15.4991 13.0333C15.107 12.8335 14.5936 12.8335 13.5668 12.8335H8.4335C7.40673 12.8335 6.89335 12.8335 6.50118 13.0333C6.15622 13.2091 5.87575 13.4896 5.69998 13.8345C5.50016 14.2267 5.50016 14.7401 5.50016 15.7668V17.2335C5.50016 18.2603 5.50016 18.7736 5.69998 19.1658C5.87575 19.5108 6.15622 19.7912 6.50118 19.967C6.89335 20.1668 7.40673 20.1668 8.4335 20.1668Z" stroke="white" stroke-width="2" stroke-linecap="round" stroke-linejoin="round"/>
</g>
<defs>
<clipPath id="clip0_376_6742">
<rect width="22" height="22" fill="white"/>
</clipPath>
</defs>
</svg>
