<svg width="32" height="32" viewBox="0 0 32 32" fill="none" xmlns="http://www.w3.org/2000/svg">
<path d="M7.08823 25.9177C7.89933 24.0068 9.79307 22.6665 11.9998 22.6665H19.9998C22.2066 22.6665 24.1003 24.0068 24.9114 25.9177M21.3332 12.6665C21.3332 15.612 18.9454 17.9998 15.9998 17.9998C13.0543 17.9998 10.6665 15.612 10.6665 12.6665C10.6665 9.72099 13.0543 7.33317 15.9998 7.33317C18.9454 7.33317 21.3332 9.72099 21.3332 12.6665ZM29.3332 15.9998C29.3332 23.3636 23.3636 29.3332 15.9998 29.3332C8.63604 29.3332 2.6665 23.3636 2.6665 15.9998C2.6665 8.63604 8.63604 2.6665 15.9998 2.6665C23.3636 2.6665 29.3332 8.63604 29.3332 15.9998Z" stroke="white" stroke-width="2" stroke-linecap="round" stroke-linejoin="round"/>
</svg>
