<svg width="29" height="20" viewBox="0 0 29 20" fill="none" xmlns="http://www.w3.org/2000/svg">
<g opacity="0.2">
<path d="M27.7799 4.4001C27.7799 4.4001 27.5065 2.46963 26.6643 1.62197C25.5979 0.506348 24.4057 0.500879 23.8588 0.435254C19.9432 0.150879 14.0643 0.150879 14.0643 0.150879H14.0534C14.0534 0.150879 8.17446 0.150879 4.25884 0.435254C3.71196 0.500879 2.51978 0.506348 1.45337 1.62197C0.611182 2.46963 0.343213 4.4001 0.343213 4.4001C0.343213 4.4001 0.0588379 6.66963 0.0588379 8.93369V11.0556C0.0588379 13.3196 0.337744 15.5892 0.337744 15.5892C0.337744 15.5892 0.611182 17.5196 1.4479 18.3673C2.51431 19.4829 3.91431 19.4446 4.53774 19.5649C6.77993 19.7782 14.0588 19.8438 14.0588 19.8438C14.0588 19.8438 19.9432 19.8329 23.8588 19.554C24.4057 19.4884 25.5979 19.4829 26.6643 18.3673C27.5065 17.5196 27.7799 15.5892 27.7799 15.5892C27.7799 15.5892 28.0588 13.3251 28.0588 11.0556V8.93369C28.0588 6.66963 27.7799 4.4001 27.7799 4.4001ZM11.1659 13.6313V5.76182L18.7291 9.71025L11.1659 13.6313Z" fill="white"/>
</g>
</svg>
